# xmcd
#
# Track frame offsets: 
#        150
#        18052
#        35946
#        57853
#        80453
#        97633
#        135165
#        149305
#        169792
#        195085
#        208841
#        217775
#
# Disc length: 3264 seconds
#
# Revision: 0
# Processed by: cddbd v1.5.2PL0 Copyright (c) Steve Scherf et al.
# Submitted via: ExactAudioCopy v1.0b4
#
DISCID=910cbe0c
DTITLE=Ron Thompson - Son Of Boogie Woogie
DYEAR=2015
DGENRE=Blues
TTITLE0=Want Ad Blues
TTITLE1=Broke And Hungry
TTITLE2=Show Biz Blues
TTITLE3=Too Late Brother
TTITLE4=Black Cat Bone
TTITLE5=Telephone Blues
TTITLE6=Gettin' Nasty
TTITLE7=Standing At The Crossroads
TTITLE8=Sugar Bee
TTITLE9=Jitterbug Swing
TTITLE10=Son Of Boogie Woogie
TTITLE11=Frankie And Johnny
EXTD=
EXTT0=
EXTT1=
EXTT2=
EXTT3=
EXTT4=
EXTT5=
EXTT6=
EXTT7=
EXTT8=
EXTT9=
EXTT10=
EXTT11=
PLAYORDER=
